<svg width="24" height="24" viewBox="0 0 24 24" fill="none" xmlns="http://www.w3.org/2000/svg">
<g clip-path="url(#clip0_200_6233)">
<path fill-rule="evenodd" clip-rule="evenodd" d="M11.2936 8.29324C11.4812 8.10577 11.7355 8.00045 12.0006 8.00045C12.2658 8.00045 12.5201 8.10577 12.7076 8.29324L18.3646 13.9502C18.4601 14.0425 18.5363 14.1528 18.5887 14.2748C18.6411 14.3968 18.6687 14.5281 18.6699 14.6608C18.671 14.7936 18.6457 14.9253 18.5955 15.0482C18.5452 15.1711 18.4709 15.2827 18.377 15.3766C18.2831 15.4705 18.1715 15.5448 18.0486 15.5951C17.9257 15.6453 17.794 15.6706 17.6612 15.6695C17.5285 15.6683 17.3972 15.6407 17.2752 15.5883C17.1532 15.5359 17.0429 15.4597 16.9506 15.3642L12.0006 10.4142L7.05063 15.3642C6.86203 15.5464 6.60943 15.6472 6.34723 15.6449C6.08504 15.6426 5.83422 15.5375 5.64882 15.3521C5.46341 15.1666 5.35824 14.9158 5.35596 14.6536C5.35368 14.3914 5.45447 14.1388 5.63663 13.9502L11.2936 8.29324Z" fill="white"/>
</g>
<defs>
<clipPath id="clip0_200_6233">
<rect width="24" height="24" fill="white" transform="matrix(-1 0 0 -1 24 24.0001)"/>
</clipPath>
</defs>
</svg>
