<svg width="16" height="16" viewBox="0 0 16 16" fill="none" xmlns="http://www.w3.org/2000/svg">
<g clip-path="url(#clip0_200_5789)">
<path d="M14.6667 1.49936H12.5V0.499357C12.5001 0.366749 12.4475 0.239537 12.3538 0.145706C12.2601 0.0518752 12.1329 -0.000888038 12.0003 -0.000976444C11.8677 -0.00106485 11.7405 0.0515288 11.6467 0.145234C11.5529 0.23894 11.5001 0.366082 11.5 0.49869V1.49936H8.5V0.499357C8.50004 0.433696 8.48715 0.368669 8.46207 0.30799C8.43698 0.24731 8.40019 0.192166 8.35379 0.145706C8.30739 0.0992456 8.2523 0.0623791 8.19165 0.0372113C8.131 0.0120436 8.06599 -0.000932677 8.00033 -0.000976451C7.86773 -0.00106486 7.74051 0.0515288 7.64668 0.145234C7.55285 0.23894 7.50009 0.366082 7.5 0.49869V1.49936H4.5V0.499357C4.50004 0.433696 4.48715 0.368669 4.46207 0.30799C4.43698 0.24731 4.40019 0.192166 4.35379 0.145706C4.30739 0.0992456 4.2523 0.0623791 4.19165 0.0372113C4.131 0.0120436 4.06599 -0.000932677 4.00033 -0.000976451C3.86773 -0.00106486 3.74051 0.0515288 3.64668 0.145234C3.55285 0.23894 3.50009 0.366082 3.5 0.49869V1.49936H1.33333C0.979827 1.49936 0.640789 1.63974 0.39076 1.88965C0.140731 2.13955 0.000176753 2.47852 0 2.83202V14.6654C0 15.019 0.140476 15.3581 0.390524 15.6082C0.640573 15.8582 0.979711 15.9987 1.33333 15.9987H14.6667C15.0203 15.9987 15.3594 15.8582 15.6095 15.6082C15.8595 15.3581 16 15.019 16 14.6654V2.83202C15.9998 2.47852 15.8593 2.13955 15.6092 1.88965C15.3592 1.63974 15.0202 1.49936 14.6667 1.49936ZM15 14.666C15 14.7543 14.965 14.839 14.9026 14.9015C14.8402 14.964 14.7556 14.9992 14.6673 14.9994H1.33333C1.24493 14.9994 1.16014 14.9642 1.09763 14.9017C1.03512 14.8392 1 14.7544 1 14.666V2.83269C1.00018 2.7444 1.03537 2.65979 1.09787 2.59742C1.16036 2.53505 1.24504 2.50002 1.33333 2.50002H3.5V3.50002C3.49991 3.63263 3.55251 3.75984 3.64621 3.85367C3.73992 3.94751 3.86706 4.00027 3.99967 4.00036C4.13228 4.00045 4.25949 3.94785 4.35332 3.85415C4.44715 3.76044 4.49991 3.6333 4.5 3.50069V2.50002H7.5V3.50002C7.49991 3.63263 7.55251 3.75984 7.64621 3.85367C7.73992 3.94751 7.86706 4.00027 7.99967 4.00036C8.13228 4.00045 8.25949 3.94785 8.35332 3.85415C8.44715 3.76044 8.49991 3.6333 8.5 3.50069V2.50002H11.5V3.50002C11.4999 3.63263 11.5525 3.75984 11.6462 3.85367C11.7399 3.94751 11.8671 4.00027 11.9997 4.00036C12.1323 4.00045 12.2595 3.94785 12.3533 3.85415C12.4471 3.76044 12.4999 3.6333 12.5 3.50069V2.50002H14.6667C14.7548 2.5002 14.8394 2.53531 14.9017 2.59765C14.9641 2.66 14.9992 2.74452 14.9993 2.83269L15 14.666Z" fill="#37387F"/>
<path d="M3.5 6H5.5V7.5H3.5V6ZM3.5 8.5H5.5V10H3.5V8.5ZM3.5 11H5.5V12.5H3.5V11ZM7 11H9V12.5H7V11ZM7 8.5H9V10H7V8.5ZM7 6H9V7.5H7V6ZM10.5 11H12.5V12.5H10.5V11ZM10.5 8.5H12.5V10H10.5V8.5ZM10.5 6H12.5V7.5H10.5V6Z" fill="#37387F"/>
</g>
<defs>
<clipPath id="clip0_200_5789">
<rect width="16" height="16" fill="white"/>
</clipPath>
</defs>
</svg>
