<svg width="14" height="14" viewBox="0 0 14 14" fill="none" xmlns="http://www.w3.org/2000/svg">
<path d="M7.00008 1.16675C10.2218 1.16675 12.8334 3.77833 12.8334 7.00008C12.8334 10.2218 10.2218 12.8334 7.00008 12.8334C3.77833 12.8334 1.16675 10.2218 1.16675 7.00008C1.16675 3.77833 3.77833 1.16675 7.00008 1.16675ZM7.00008 2.33341C5.7624 2.33341 4.57542 2.82508 3.70025 3.70025C2.82508 4.57542 2.33341 5.7624 2.33341 7.00008C2.33341 8.23776 2.82508 9.42474 3.70025 10.2999C4.57542 11.1751 5.7624 11.6667 7.00008 11.6667C8.23776 11.6667 9.42474 11.1751 10.2999 10.2999C11.1751 9.42474 11.6667 8.23776 11.6667 7.00008C11.6667 5.7624 11.1751 4.57542 10.2999 3.70025C9.42474 2.82508 8.23776 2.33341 7.00008 2.33341ZM7.00008 3.50008C7.14296 3.5001 7.28086 3.55256 7.38763 3.6475C7.4944 3.74244 7.56261 3.87327 7.57933 4.01516L7.58342 4.08342V6.75858L9.1625 8.33767C9.26712 8.44264 9.32786 8.5835 9.33238 8.73164C9.33691 8.87978 9.28487 9.02408 9.18685 9.13524C9.08883 9.24641 8.95218 9.31609 8.80464 9.33015C8.6571 9.3442 8.50974 9.30157 8.3925 9.21092L8.33767 9.1625L6.58767 7.4125C6.497 7.32176 6.43878 7.20367 6.422 7.0765L6.41675 7.00008V4.08342C6.41675 3.92871 6.47821 3.78033 6.5876 3.67094C6.697 3.56154 6.84537 3.50008 7.00008 3.50008Z" fill="#066AC8"/>
</svg>
