<svg width="14" height="14" viewBox="0 0 14 14" fill="none" xmlns="http://www.w3.org/2000/svg">
<path d="M5.44444 9.72222H8.55556C8.666 9.72222 8.7583 9.68489 8.83245 9.61022C8.90659 9.53556 8.94393 9.44326 8.94444 9.33333V8.16667H8.16667V8.94444H5.83333V5.05556H8.16667V5.83333H8.94444V4.66667C8.94444 4.5557 8.90711 4.46315 8.83245 4.389C8.75778 4.31485 8.66548 4.27778 8.55556 4.27778H5.44444C5.334 4.27778 5.2417 4.31511 5.16756 4.38978C5.09341 4.46444 5.05607 4.55674 5.05556 4.66667V9.33333C5.05556 9.44378 5.09289 9.53607 5.16756 9.61022C5.24222 9.68437 5.33452 9.7217 5.44444 9.72222ZM7.00233 14C6.03426 14 5.12426 13.8164 4.27233 13.4493C3.42041 13.0817 2.67919 12.5829 2.04867 11.9529C1.41815 11.3229 0.919074 10.5824 0.551445 9.73156C0.183815 8.88067 0 7.97093 0 7.00233C0 6.03374 0.183815 5.12374 0.551445 4.27233C0.918556 3.42041 1.41659 2.67919 2.04556 2.04867C2.67452 1.41815 3.41522 0.919074 4.26767 0.551445C5.12011 0.183815 6.03011 0 6.99767 0C7.96522 0 8.87522 0.183815 9.72767 0.551445C10.5796 0.918556 11.3208 1.41685 11.9513 2.04633C12.5819 2.67581 13.0809 3.41652 13.4486 4.26844C13.8162 5.12037 14 6.03011 14 6.99767C14 7.96522 13.8164 8.87522 13.4493 9.72767C13.0822 10.5801 12.5834 11.3213 11.9529 11.9513C11.3224 12.5813 10.5819 13.0804 9.73156 13.4486C8.88119 13.8167 7.97145 14.0005 7.00233 14ZM7 13.2222C8.73704 13.2222 10.2083 12.6194 11.4139 11.4139C12.6194 10.2083 13.2222 8.73704 13.2222 7C13.2222 5.26296 12.6194 3.79167 11.4139 2.58611C10.2083 1.38056 8.73704 0.777778 7 0.777778C5.26296 0.777778 3.79167 1.38056 2.58611 2.58611C1.38056 3.79167 0.777778 5.26296 0.777778 7C0.777778 8.73704 1.38056 10.2083 2.58611 11.4139C3.79167 12.6194 5.26296 13.2222 7 13.2222Z" fill="#185CAB"/>
</svg>
