<svg width="20" height="16" viewBox="0 0 20 16" fill="none" xmlns="http://www.w3.org/2000/svg">
<path d="M1 1.1665V0.416504C0.801088 0.416504 0.610322 0.495521 0.46967 0.636174C0.329018 0.776826 0.25 0.967592 0.25 1.1665H1ZM19 1.1665H19.75C19.75 0.967592 19.671 0.776826 19.5303 0.636174C19.3897 0.495521 19.1989 0.416504 19 0.416504V1.1665ZM1 1.9165H19V0.416504H1V1.9165ZM18.25 1.1665V13.1665H19.75V1.1665H18.25ZM17 14.4165H3V15.9165H17V14.4165ZM1.75 13.1665V1.1665H0.25V13.1665H1.75ZM3 14.4165C2.31 14.4165 1.75 13.8565 1.75 13.1665H0.25C0.25 13.8958 0.539731 14.5953 1.05546 15.111C1.57118 15.6268 2.27065 15.9165 3 15.9165V14.4165ZM18.25 13.1665C18.25 13.8565 17.69 14.4165 17 14.4165V15.9165C17.7293 15.9165 18.4288 15.6268 18.9445 15.111C19.4603 14.5953 19.75 13.8958 19.75 13.1665H18.25Z" fill="#185CAB"/>
<path d="M1 1.1665L10 10.1665L19 1.1665" stroke="#185CAB" stroke-linecap="round" stroke-linejoin="round"/>
</svg>
