<svg width="9" height="13" viewBox="0 0 9 13" fill="none" xmlns="http://www.w3.org/2000/svg">
<path d="M8.375 4.8125L4.5 0.875L0.625 4.8125C0.5 4.9375 0.4375 5.0625 0.4375 5.25C0.4375 5.4375 0.5 5.5625 0.625 5.6875C0.75 5.8125 0.875 5.875 1.0625 5.875H7.9375C8.125 5.875 8.25 5.8125 8.375 5.6875C8.5 5.5625 8.5625 5.375 8.5625 5.25C8.5625 5.125 8.5 4.9375 8.375 4.8125ZM0.625 8.1875L4.5 12.125L8.375 8.1875C8.5 8.0625 8.5625 7.875 8.5625 7.75C8.5625 7.625 8.5 7.4375 8.375 7.3125C8.25 7.1875 8.125 7.125 7.9375 7.125H1.0625C0.875 7.125 0.75 7.1875 0.625 7.3125C0.5 7.4375 0.4375 7.625 0.4375 7.75C0.4375 7.875 0.5 8.0625 0.625 8.1875Z" fill="white"/>
</svg>
