<svg width="14" height="12" viewBox="0 0 14 12" fill="none" xmlns="http://www.w3.org/2000/svg">
<path d="M3.5 2C3.5 2.39782 3.34196 2.77936 3.06066 3.06066C2.77936 3.34196 2.39782 3.5 2 3.5C1.60218 3.5 1.22064 3.34196 0.93934 3.06066C0.658035 2.77936 0.5 2.39782 0.5 2C0.5 1.60218 0.658035 1.22064 0.93934 0.93934C1.22064 0.658035 1.60218 0.5 2 0.5C2.39782 0.5 2.77936 0.658035 3.06066 0.93934C3.34196 1.22064 3.5 1.60218 3.5 2ZM3.5 6C3.5 6.39782 3.34196 6.77936 3.06066 7.06066C2.77936 7.34196 2.39782 7.5 2 7.5C1.60218 7.5 1.22064 7.34196 0.93934 7.06066C0.658035 6.77936 0.5 6.39782 0.5 6C0.5 5.60218 0.658035 5.22064 0.93934 4.93934C1.22064 4.65804 1.60218 4.5 2 4.5C2.39782 4.5 2.77936 4.65804 3.06066 4.93934C3.34196 5.22064 3.5 5.60218 3.5 6ZM3.5 10C3.5 10.3978 3.34196 10.7794 3.06066 11.0607C2.77936 11.342 2.39782 11.5 2 11.5C1.60218 11.5 1.22064 11.342 0.93934 11.0607C0.658035 10.7794 0.5 10.3978 0.5 10C0.5 9.60218 0.658035 9.22064 0.93934 8.93934C1.22064 8.65804 1.60218 8.5 2 8.5C2.39782 8.5 2.77936 8.65804 3.06066 8.93934C3.34196 9.22064 3.5 9.60218 3.5 10Z" fill="white"/>
<path fill-rule="evenodd" clip-rule="evenodd" d="M4.5 2.5C4.5 2.36739 4.55268 2.24021 4.64645 2.14645C4.74021 2.05268 4.86739 2 5 2H13C13.1326 2 13.2598 2.05268 13.3536 2.14645C13.4473 2.24021 13.5 2.36739 13.5 2.5C13.5 2.63261 13.4473 2.75979 13.3536 2.85355C13.2598 2.94732 13.1326 3 13 3H5C4.86739 3 4.74021 2.94732 4.64645 2.85355C4.55268 2.75979 4.5 2.63261 4.5 2.5ZM4.5 6.5C4.5 6.36739 4.55268 6.24021 4.64645 6.14645C4.74021 6.05268 4.86739 6 5 6H13C13.1326 6 13.2598 6.05268 13.3536 6.14645C13.4473 6.24021 13.5 6.36739 13.5 6.5C13.5 6.63261 13.4473 6.75979 13.3536 6.85355C13.2598 6.94732 13.1326 7 13 7H5C4.86739 7 4.74021 6.94732 4.64645 6.85355C4.55268 6.75979 4.5 6.63261 4.5 6.5ZM4.5 10.5C4.5 10.3674 4.55268 10.2402 4.64645 10.1464C4.74021 10.0527 4.86739 10 5 10H13C13.1326 10 13.2598 10.0527 13.3536 10.1464C13.4473 10.2402 13.5 10.3674 13.5 10.5C13.5 10.6326 13.4473 10.7598 13.3536 10.8536C13.2598 10.9473 13.1326 11 13 11H5C4.86739 11 4.74021 10.9473 4.64645 10.8536C4.55268 10.7598 4.5 10.6326 4.5 10.5Z" fill="white"/>
</svg>
