<svg width="18" height="22" viewBox="0 0 18 22" fill="none" xmlns="http://www.w3.org/2000/svg">
<path fill-rule="evenodd" clip-rule="evenodd" d="M4.25 9.1665C4.25 7.90673 4.75045 6.69854 5.64124 5.80775C6.53204 4.91695 7.74022 4.4165 9 4.4165C10.2598 4.4165 11.468 4.91695 12.3588 5.80775C13.2496 6.69854 13.75 7.90673 13.75 9.1665C13.75 10.4263 13.2496 11.6345 12.3588 12.5253C11.468 13.4161 10.2598 13.9165 9 13.9165C7.74022 13.9165 6.53204 13.4161 5.64124 12.5253C4.75045 11.6345 4.25 10.4263 4.25 9.1665ZM9 5.9165C8.13805 5.9165 7.3114 6.25891 6.7019 6.86841C6.09241 7.4779 5.75 8.30455 5.75 9.1665C5.75 10.0285 6.09241 10.8551 6.7019 11.4646C7.3114 12.0741 8.13805 12.4165 9 12.4165C9.86195 12.4165 10.6886 12.0741 11.2981 11.4646C11.9076 10.8551 12.25 10.0285 12.25 9.1665C12.25 8.30455 11.9076 7.4779 11.2981 6.86841C10.6886 6.25891 9.86195 5.9165 9 5.9165Z" fill="#185CAB"/>
<path fill-rule="evenodd" clip-rule="evenodd" d="M0.523978 8.0235C0.695354 5.95048 1.63979 4.01763 3.16988 2.60851C4.69997 1.19938 6.70388 0.41696 8.78398 0.416504H9.21598C11.2961 0.41696 13.3 1.19938 14.8301 2.60851C16.3602 4.01763 17.3046 5.95048 17.476 8.0235C17.6666 10.3328 16.9531 12.626 15.486 14.4195L10.693 20.2805C10.4879 20.5313 10.2296 20.7335 9.93677 20.8723C9.64398 21.011 9.324 21.083 8.99998 21.083C8.67595 21.083 8.35598 21.011 8.06318 20.8723C7.77039 20.7335 7.5121 20.5313 7.30698 20.2805L2.51398 14.4195C1.04681 12.626 0.333345 10.3328 0.523978 8.0235ZM8.78398 1.9165C7.08059 1.91722 5.4397 2.55815 4.18679 3.71215C2.93387 4.86615 2.16046 6.44892 2.01998 8.1465C1.86126 10.0684 2.45498 11.9768 3.67598 13.4695L8.46898 19.3315C8.53341 19.4104 8.61457 19.4739 8.70658 19.5175C8.79858 19.5612 8.89915 19.5838 9.00098 19.5838C9.10281 19.5838 9.20337 19.5612 9.29538 19.5175C9.38739 19.4739 9.46855 19.4104 9.53298 19.3315L14.326 13.4695C15.5463 11.9765 16.1393 10.0681 15.98 8.1465C15.8395 6.44875 15.0659 4.86584 13.8128 3.71181C12.5597 2.55779 10.9185 1.91697 9.21498 1.9165H8.78398Z" fill="#185CAB"/>
</svg>
