<svg width="20" height="25" viewBox="0 0 20 25" fill="none" xmlns="http://www.w3.org/2000/svg">
<path d="M10 12.5001C10.6875 12.5001 11.2762 12.2551 11.7662 11.7651C12.2562 11.2751 12.5008 10.6868 12.5 10.0001C12.5 9.31262 12.255 8.72387 11.765 8.23387C11.275 7.74387 10.6867 7.49929 10 7.50012C9.3125 7.50012 8.72375 7.74512 8.23375 8.23512C7.74375 8.72512 7.49917 9.31346 7.5 10.0001C7.5 10.6876 7.745 11.2764 8.235 11.7664C8.725 12.2564 9.31333 12.501 10 12.5001ZM10 25.0001C6.64583 22.146 4.14083 19.4951 2.485 17.0476C0.829167 14.6001 0.000833333 12.3343 0 10.2501C0 7.12512 1.00542 4.63554 3.01625 2.78137C5.02708 0.927205 7.355 0.00012207 10 0.00012207C12.6458 0.00012207 14.9742 0.927205 16.985 2.78137C18.9958 4.63554 20.0008 7.12512 20 10.2501C20 12.3335 19.1717 14.5993 17.515 17.0476C15.8583 19.496 13.3533 22.1468 10 25.0001Z" fill="#185CAB"/>
</svg>
