<svg width="19" height="19" viewBox="0 0 19 19" fill="none" xmlns="http://www.w3.org/2000/svg">
<path d="M17.8333 9.5C17.5556 9.5 17.308 9.4 17.0906 9.2C16.8733 9 16.7479 8.75278 16.7146 8.45833C16.4889 6.84375 15.8073 5.46771 14.6698 4.33021C13.5323 3.19271 12.1563 2.51146 10.5417 2.28646C10.2465 2.25174 9.99896 2.13021 9.79896 1.92187C9.59896 1.71354 9.49931 1.46181 9.5 1.16667C9.5 0.871528 9.60417 0.623958 9.8125 0.423958C10.0208 0.223958 10.2639 0.141667 10.5417 0.177083C12.7292 0.420139 14.5955 1.31424 16.1406 2.85938C17.6858 4.40451 18.5799 6.27083 18.8229 8.45833C18.8576 8.73611 18.775 8.97917 18.575 9.1875C18.375 9.39583 18.1278 9.5 17.8333 9.5ZM13.4844 9.5C13.2587 9.5 13.059 9.42187 12.8854 9.26562C12.7118 9.10937 12.5816 8.90104 12.4948 8.64062C12.3559 8.13715 12.091 7.68993 11.7 7.29896C11.309 6.90799 10.8622 6.6434 10.3594 6.50521C10.099 6.4184 9.89063 6.28819 9.73438 6.11458C9.57813 5.94097 9.5 5.73264 9.5 5.48958C9.5 5.14236 9.62153 4.86007 9.86458 4.64271C10.1076 4.42535 10.3767 4.35174 10.6719 4.42188C11.6441 4.64757 12.4819 5.11215 13.1854 5.81563C13.8889 6.5191 14.3531 7.3566 14.5781 8.32812C14.6476 8.62326 14.5694 8.89236 14.3438 9.13542C14.1181 9.37847 13.8316 9.5 13.4844 9.5ZM17.7812 18.875C15.5417 18.875 13.3583 18.3757 11.2312 17.3771C9.10417 16.3785 7.22049 15.059 5.58021 13.4187C3.93993 11.7785 2.62049 9.89479 1.62188 7.76771C0.623264 5.64062 0.124306 3.45764 0.125001 1.21875C0.125001 0.90625 0.229167 0.645833 0.437501 0.4375C0.645834 0.229167 0.906251 0.125 1.21875 0.125H5.4375C5.68056 0.125 5.89757 0.203125 6.08854 0.359375C6.27951 0.515625 6.39236 0.715278 6.42708 0.958333L7.10417 4.60417C7.13889 4.84722 7.13438 5.06875 7.09063 5.26875C7.04688 5.46875 6.94722 5.64653 6.79167 5.80208L4.29167 8.35417C5.02083 9.60417 5.93229 10.776 7.02604 11.8698C8.11979 12.9635 9.32639 13.9097 10.6458 14.7083L13.0938 12.2604C13.25 12.1042 13.4542 11.9872 13.7063 11.9094C13.9583 11.8316 14.2056 11.8097 14.4479 11.8438L18.0417 12.5729C18.2847 12.625 18.4844 12.7424 18.6406 12.925C18.7969 13.1076 18.875 13.3201 18.875 13.5625V17.7812C18.875 18.0938 18.7708 18.3542 18.5625 18.5625C18.3542 18.7708 18.0938 18.875 17.7812 18.875Z" fill="#185CAB"/>
</svg>
