<svg width="20" height="19" viewBox="0 0 20 19" fill="none" xmlns="http://www.w3.org/2000/svg">
<path d="M13.6289 13.0575L14.0849 12.6045L13.0259 11.5405L12.5719 11.9935L13.6289 13.0575ZM15.6139 12.4145L17.5249 13.4535L18.2399 12.1355L16.3299 11.0975L15.6139 12.4145ZM17.8919 15.5175L16.4719 16.9305L17.5289 17.9935L18.9489 16.5815L17.8919 15.5175ZM15.6059 17.3845C14.1559 17.5205 10.4059 17.3995 6.34393 13.3615L5.28593 14.4245C9.71793 18.8315 13.9369 19.0475 15.7459 18.8785L15.6059 17.3845ZM6.34393 13.3615C2.47293 9.51146 1.83093 6.27446 1.75093 4.86946L0.252929 4.95446C0.352929 6.72246 1.14793 10.3105 5.28593 14.4245L6.34393 13.3615ZM7.71893 7.18146L8.00593 6.89546L6.94993 5.83246L6.66293 6.11746L7.71893 7.18146ZM8.23393 3.26046L6.97393 1.57646L5.77293 2.47646L7.03293 4.15946L8.23393 3.26046ZM2.73293 1.20946L1.16293 2.76946L2.22093 3.83346L3.78993 2.27346L2.73293 1.20946ZM7.19093 6.64946C6.66093 6.11746 6.66093 6.11746 6.66093 6.11946H6.65893L6.65593 6.12346C6.60871 6.17165 6.56619 6.22422 6.52893 6.28046C6.47493 6.36046 6.41593 6.46546 6.36593 6.59846C6.24416 6.94178 6.21383 7.31088 6.27793 7.66946C6.41193 8.53446 7.00793 9.67746 8.53393 11.1955L9.59193 10.1315C8.16293 8.71146 7.82293 7.84746 7.75993 7.43946C7.72993 7.24546 7.76093 7.14946 7.76993 7.12746C7.77493 7.11346 7.77693 7.11246 7.76993 7.12146C7.76111 7.13533 7.75107 7.14838 7.73993 7.16046L7.72993 7.17046C7.7267 7.17357 7.72336 7.17657 7.71993 7.17946L7.19093 6.64946ZM8.53393 11.1955C10.0609 12.7135 11.2099 13.3055 12.0759 13.4375C12.5189 13.5055 12.8759 13.4515 13.1469 13.3505C13.2985 13.2944 13.4402 13.2147 13.5669 13.1145C13.5841 13.1001 13.6008 13.0851 13.6169 13.0695L13.6239 13.0635L13.6269 13.0605L13.6279 13.0585C13.6279 13.0585 13.6289 13.0575 13.0999 12.5255C12.5699 11.9935 12.5729 11.9925 12.5729 11.9925L12.5749 11.9905L12.5769 11.9885L12.5829 11.9835L12.5929 11.9735C12.605 11.9627 12.6176 11.9527 12.6309 11.9435C12.6409 11.9365 12.6379 11.9395 12.6239 11.9455C12.5989 11.9545 12.5009 11.9855 12.3039 11.9555C11.8899 11.8915 11.0199 11.5515 9.59193 10.1315L8.53393 11.1955ZM6.97393 1.57546C5.95393 0.215464 3.94993 -0.000536203 2.73293 1.20946L3.78993 2.27346C4.32193 1.74446 5.26593 1.79946 5.77293 2.47646L6.97393 1.57546ZM1.75193 4.87046C1.73193 4.52446 1.89093 4.16246 2.22093 3.83446L1.16193 2.77046C0.624929 3.30446 0.201929 4.06046 0.252929 4.95446L1.75193 4.87046ZM16.4719 16.9305C16.1979 17.2045 15.9019 17.3585 15.6069 17.3855L15.7459 18.8785C16.4809 18.8095 17.0819 18.4395 17.5299 17.9945L16.4719 16.9305ZM8.00593 6.89546C8.99093 5.91646 9.06393 4.36946 8.23493 3.26146L7.03393 4.16046C7.43693 4.69946 7.37693 5.40646 6.94893 5.83346L8.00593 6.89546ZM17.5259 13.4545C18.3429 13.8985 18.4699 14.9445 17.8929 15.5185L18.9509 16.5815C20.2909 15.2485 19.8779 13.0255 18.2409 12.1365L17.5259 13.4545ZM14.0849 12.6055C14.4689 12.2235 15.0869 12.1295 15.6149 12.4155L16.3309 11.0985C15.2469 10.5085 13.9029 10.6715 13.0269 11.5415L14.0849 12.6055Z" fill="#185CAB"/>
</svg>
