<svg width="20" height="20" viewBox="0 0 20 20" fill="none" xmlns="http://www.w3.org/2000/svg">
<path d="M14.1667 18.3332C13.4723 18.3332 12.882 18.0901 12.3959 17.604C11.9098 17.1179 11.6667 16.5276 11.6667 15.8332C11.6667 15.7498 11.6876 15.5554 11.7292 15.2498L5.87508 11.8332C5.65286 12.0415 5.39591 12.2048 5.10425 12.3232C4.81258 12.4415 4.50008 12.5004 4.16675 12.4998C3.4723 12.4998 2.88203 12.2568 2.39591 11.7707C1.9098 11.2846 1.66675 10.6943 1.66675 9.99984C1.66675 9.30539 1.9098 8.71512 2.39591 8.229C2.88203 7.74289 3.4723 7.49984 4.16675 7.49984C4.50008 7.49984 4.81258 7.559 5.10425 7.67734C5.39591 7.79567 5.65286 7.95873 5.87508 8.1665L11.7292 4.74984C11.7015 4.65261 11.6842 4.559 11.6776 4.469C11.6709 4.379 11.6673 4.27817 11.6667 4.1665C11.6667 3.47206 11.9098 2.88178 12.3959 2.39567C12.882 1.90956 13.4723 1.6665 14.1667 1.6665C14.8612 1.6665 15.4515 1.90956 15.9376 2.39567C16.4237 2.88178 16.6667 3.47206 16.6667 4.1665C16.6667 4.86095 16.4237 5.45123 15.9376 5.93734C15.4515 6.42345 14.8612 6.6665 14.1667 6.6665C13.8334 6.6665 13.5209 6.60734 13.2292 6.489C12.9376 6.37067 12.6806 6.20761 12.4584 5.99984L6.60425 9.4165C6.63203 9.51373 6.64953 9.60761 6.65675 9.69817C6.66397 9.78873 6.6673 9.88928 6.66675 9.99984C6.66619 10.1104 6.66286 10.2112 6.65675 10.3023C6.65064 10.3934 6.63314 10.4871 6.60425 10.5832L12.4584 13.9998C12.6806 13.7915 12.9376 13.6284 13.2292 13.5107C13.5209 13.3929 13.8334 13.3337 14.1667 13.3332C14.8612 13.3332 15.4515 13.5762 15.9376 14.0623C16.4237 14.5484 16.6667 15.1387 16.6667 15.8332C16.6667 16.5276 16.4237 17.1179 15.9376 17.604C15.4515 18.0901 14.8612 18.3332 14.1667 18.3332Z" fill="#185CAB"/>
</svg>
